<svg width="54" height="54" viewBox="0 0 54 54" fill="none" xmlns="http://www.w3.org/2000/svg">
<path fill-rule="evenodd" clip-rule="evenodd" d="M22.5015 2.9063C22.5521 1.28671 23.8797 0 25.5 0H30C31.6204 0 32.948 1.28671 32.9986 2.9063L33.0249 3.75H34.5C36.1569 3.75 37.5 5.09315 37.5 6.75V8.56954C40.7701 7.82953 44.2998 8.32383 47.2956 10.8203C53.5192 16.0067 52.9466 26.8786 45.5604 32.8251C43.778 34.2602 42.3777 35.4499 41.4134 36.6757C41.1934 36.9554 41.0049 37.226 40.8463 37.4909L43.8867 37.9021C45.3746 38.1033 46.4846 39.3735 46.4846 40.875V46.5C46.4846 48.1569 45.1415 49.5 43.4846 49.5H12.0154C10.3586 49.5 9.01544 48.1569 9.01544 46.5V40.875C9.01544 39.3735 10.1254 38.1033 11.6134 37.9021L14.6538 37.4909C14.4951 37.226 14.3067 36.9554 14.0867 36.6757C13.1224 35.4499 11.7221 34.2602 9.93964 32.8251C2.55349 26.8786 1.98084 16.0067 8.20447 10.8203C11.2003 8.32384 14.7299 7.82953 18 8.56954V6.75C18 5.09315 19.3432 3.75 21 3.75H22.4751L22.5015 2.9063Z" fill="#E2E2E2"/>
<path fill-rule="evenodd" clip-rule="evenodd" d="M25.5 3H30L30.1172 6.75H34.5V11.25H30.2578L30.4639 16.3447C30.5461 16.2479 30.6308 16.1529 30.7181 16.0601C34.8154 11.7053 40.8905 9.38791 45.375 13.125C49.875 16.875 49.875 25.5 43.679 30.4884C40.1692 33.3141 37.0255 36.0382 37.1804 40.0224L43.4846 40.875V46.5H12.0154V40.875L18.3196 40.0224C18.4745 36.0382 15.3307 33.3141 11.8209 30.4884C5.62497 25.5 5.62497 16.875 10.125 13.125C14.6095 9.38791 20.6845 11.7053 24.7819 16.0601C24.8692 16.1529 24.9538 16.2479 25.0361 16.3447L25.2422 11.25H21V6.75H25.3828L25.5 3ZM21.261 20.2299C24.011 24.7343 24.375 30 24.375 32.2899C22.9966 32.2924 17.8003 30.0064 15.0492 26.2535C13.0686 23.5517 12.5521 19.5431 14.25 17.9869C15.9478 16.4306 19.5422 17.4146 21.261 20.2299ZM34.239 20.2299C31.4889 24.7343 31.125 30 31.125 32.2899C32.5034 32.2924 37.6996 30.0064 40.4507 26.2535C42.4314 23.5517 42.9478 19.5431 41.25 17.9869C39.5521 16.4306 35.9577 17.4146 34.239 20.2299Z" fill="#303030"/>
</svg>
